<?xml version="1.0" standalone="no"?>
<!DOCTYPE svg PUBLIC "-//W3C//DTD SVG 20010904//EN"
 "http://www.w3.org/TR/2001/REC-SVG-20010904/DTD/svg10.dtd">
<svg version="1.0" xmlns="http://www.w3.org/2000/svg"
 width="125.000000pt" height="125.000000pt" viewBox="0 0 125.000000 125.000000"
 preserveAspectRatio="xMidYMid meet">
<metadata>
Created by potrace 1.11, written by Peter Selinger 2001-2013
</metadata>
<g transform="translate(0.000000,125.000000) scale(0.100000,-0.100000)"
fill="#000000" stroke="none">
<path d="M765 1164 c-128 -21 -250 -76 -292 -131 -15 -19 -28 -52 -30 -76 -5
-39 -1 -48 28 -82 42 -47 99 -73 259 -115 149 -40 178 -51 219 -86 27 -23 31
-32 31 -77 0 -130 -144 -257 -370 -329 -63 -19 -96 -23 -210 -23 -120 0 -140
2 -180 23 -53 26 -80 65 -80 116 0 70 109 158 235 191 125 32 284 11 324 -43
42 -55 42 -55 58 -39 21 21 1 88 -40 128 -58 59 -107 74 -237 74 -279 -1 -467
-137 -464 -335 2 -163 121 -253 354 -266 131 -8 258 19 388 82 338 164 417
540 143 679 -27 13 -98 39 -158 56 -140 41 -150 46 -130 66 42 42 327 59 438
27 57 -17 89 -38 89 -60 0 -49 60 -5 86 62 30 80 6 107 -127 139 -64 16 -278
28 -334 19z"/>
</g>
</svg>
